{
   "accessors" : [
      {
         "bufferView" : 0,
         "byteOffset" : 0,
         "componentType" : 5123,
         "count" : 65535,
         "max" : [ 65534 ],
         "min" : [ 0 ],
         "name" : "buffer-0-accessor-indices-buffer-0-mesh-0",
         "type" : "SCALAR"
      },
      {
         "bufferView" : 2,
         "byteOffset" : 0,
         "componentType" : 5126,
         "count" : 65535,
         "max" : [ 0, 267110.40625, 0 ],
         "min" : [ -643400.9375, 0, -352056.71875 ],
         "name" : "buffer-0-accessor-position-buffer-0-mesh-0",
         "type" : "VEC3"
      },
      {
         "bufferView" : 2,
         "byteOffset" : 786420,
         "componentType" : 5126,
         "count" : 65535,
         "max" : [ 1, 0.9944000244140625, 0.9990000128746033 ],
         "min" : [ -1, -0.9944000244140625, -0.9990000128746033 ],
         "name" : "buffer-0-accessor-normal-buffer-0-mesh-0",
         "type" : "VEC3"
      },
      {
         "bufferView" : 1,
         "byteOffset" : 0,
         "componentType" : 5126,
         "count" : 65535,
         "max" : [ 1, 0 ],
         "min" : [ 0, -1 ],
         "name" : "buffer-0-accessor-texcoord-buffer-0-mesh-0",
         "type" : "VEC2"
      },
      {
         "bufferView" : 3,
         "byteOffset" : 0,
         "componentType" : 5126,
         "count" : 0,
         "max" : [ 0, 0, 0, 0 ],
         "min" : [ 0, 0, 0, 0 ],
         "name" : "buffer-0-accessor-color-buffer-0-mesh-0",
         "type" : "VEC4"
      },
      {
         "bufferView" : 0,
         "byteOffset" : 131070,
         "componentType" : 5123,
         "count" : 65535,
         "max" : [ 65534 ],
         "min" : [ 0 ],
         "name" : "buffer-0-accessor-indices-buffer-0-mesh-1",
         "type" : "SCALAR"
      },
      {
         "bufferView" : 2,
         "byteOffset" : 1572840,
         "componentType" : 5126,
         "count" : 65535,
         "max" : [ 0, 277166.4375, 81066.1875 ],
         "min" : [ -654700.1875, 0, -365342.8125 ],
         "name" : "buffer-0-accessor-position-buffer-0-mesh-1",
         "type" : "VEC3"
      },
      {
         "bufferView" : 2,
         "byteOffset" : 2359260,
         "componentType" : 5126,
         "count" : 65535,
         "max" : [ 0.9998999834060669, 1, 0.9998999834060669 ],
         "min" : [ -0.9998999834060669, -1, -0.9998999834060669 ],
         "name" : "buffer-0-accessor-normal-buffer-0-mesh-1",
         "type" : "VEC3"
      },
      {
         "bufferView" : 1,
         "byteOffset" : 524280,
         "componentType" : 5126,
         "count" : 65535,
         "max" : [ 1.031299948692322, 0 ],
         "min" : [ 0, -1 ],
         "name" : "buffer-0-accessor-texcoord-buffer-0-mesh-1",
         "type" : "VEC2"
      },
      {
         "bufferView" : 3,
         "byteOffset" : 0,
         "componentType" : 5126,
         "count" : 0,
         "max" : [ 0, 0, 0, 0 ],
         "min" : [ 0, 0, 0, 0 ],
         "name" : "buffer-0-accessor-color-buffer-0-mesh-1",
         "type" : "VEC4"
      },
      {
         "bufferView" : 0,
         "byteOffset" : 262140,
         "componentType" : 5123,
         "count" : 2178,
         "max" : [ 2177 ],
         "min" : [ 0 ],
         "name" : "buffer-0-accessor-indices-buffer-0-mesh-2",
         "type" : "SCALAR"
      },
      {
         "bufferView" : 2,
         "byteOffset" : 3145680,
         "componentType" : 5126,
         "count" : 2178,
         "max" : [ 0, 239266.640625, 0 ],
         "min" : [ -553754.375, 0, -305383.28125 ],
         "name" : "buffer-0-accessor-position-buffer-0-mesh-2",
         "type" : "VEC3"
      },
      {
         "bufferView" : 2,
         "byteOffset" : 3171816,
         "componentType" : 5126,
         "count" : 2178,
         "max" : [ 0.991100013256073, 0.122699998319149, 0.9835000038146973 ],
         "min" : [ -0.991100013256073, -0.9994000196456909, -0.989300012588501 ],
         "name" : "buffer-0-accessor-normal-buffer-0-mesh-2",
         "type" : "VEC3"
      },
      {
         "bufferView" : 1,
         "byteOffset" : 1048560,
         "componentType" : 5126,
         "count" : 2178,
         "max" : [ 1, 0 ],
         "min" : [ 0, -1 ],
         "name" : "buffer-0-accessor-texcoord-buffer-0-mesh-2",
         "type" : "VEC2"
      },
      {
         "bufferView" : 3,
         "byteOffset" : 0,
         "componentType" : 5126,
         "count" : 0,
         "max" : [ 0, 0, 0, 0 ],
         "min" : [ 0, 0, 0, 0 ],
         "name" : "buffer-0-accessor-color-buffer-0-mesh-2",
         "type" : "VEC4"
      },
      {
         "bufferView" : 0,
         "byteOffset" : 266496,
         "componentType" : 5123,
         "count" : 20016,
         "max" : [ 20015 ],
         "min" : [ 0 ],
         "name" : "buffer-0-accessor-indices-buffer-0-mesh-0",
         "type" : "SCALAR"
      },
      {
         "bufferView" : 2,
         "byteOffset" : 3197952,
         "componentType" : 5126,
         "count" : 20016,
         "max" : [ 0, 282183.75, 0 ],
         "min" : [ -636243.5, 0, -347799 ],
         "name" : "buffer-0-accessor-position-buffer-0-mesh-0",
         "type" : "VEC3"
      },
      {
         "bufferView" : 2,
         "byteOffset" : 3438144,
         "componentType" : 5126,
         "count" : 20016,
         "max" : [ 0.9994000196456909, 0.9994000196456909, 0.9965999722480774 ],
         "min" : [ -0.9969000220298767, -0.9922999739646912, -0.9990000128746033 ],
         "name" : "buffer-0-accessor-normal-buffer-0-mesh-0",
         "type" : "VEC3"
      },
      {
         "bufferView" : 1,
         "byteOffset" : 1065984,
         "componentType" : 5126,
         "count" : 20016,
         "max" : [ 1, 0 ],
         "min" : [ 0, -1 ],
         "name" : "buffer-0-accessor-texcoord-buffer-0-mesh-0",
         "type" : "VEC2"
      },
      {
         "bufferView" : 3,
         "byteOffset" : 0,
         "componentType" : 5126,
         "count" : 0,
         "max" : [ 0, 0, 0, 0 ],
         "min" : [ 0, 0, 0, 0 ],
         "name" : "buffer-0-accessor-color-buffer-0-mesh-0",
         "type" : "VEC4"
      },
      {
         "bufferView" : 0,
         "byteOffset" : 306528,
         "componentType" : 5123,
         "count" : 3060,
         "max" : [ 3059 ],
         "min" : [ 0 ],
         "name" : "buffer-0-accessor-indices-buffer-0-mesh-0",
         "type" : "SCALAR"
      },
      {
         "bufferView" : 2,
         "byteOffset" : 3678336,
         "componentType" : 5126,
         "count" : 3060,
         "max" : [ 0, 271544.5625, 0 ],
         "min" : [ -662775.8125, -683.8909301757812, -373418.4375 ],
         "name" : "buffer-0-accessor-position-buffer-0-mesh-0",
         "type" : "VEC3"
      },
      {
         "bufferView" : 2,
         "byteOffset" : 3715056,
         "componentType" : 5126,
         "count" : 3060,
         "max" : [ 0.9998999834060669, 1, 0.9998999834060669 ],
         "min" : [ -0.9998999834060669, -1, -0.9998999834060669 ],
         "name" : "buffer-0-accessor-normal-buffer-0-mesh-0",
         "type" : "VEC3"
      },
      {
         "bufferView" : 1,
         "byteOffset" : 1226112,
         "componentType" : 5126,
         "count" : 3060,
         "max" : [ 1.031299948692322, 0 ],
         "min" : [ 0, -1 ],
         "name" : "buffer-0-accessor-texcoord-buffer-0-mesh-0",
         "type" : "VEC2"
      },
      {
         "bufferView" : 3,
         "byteOffset" : 0,
         "componentType" : 5126,
         "count" : 0,
         "max" : [ 0, 0, 0, 0 ],
         "min" : [ 0, 0, 0, 0 ],
         "name" : "buffer-0-accessor-color-buffer-0-mesh-0",
         "type" : "VEC4"
      }
   ],
   "asset" : {
      "generator" : "Obj2GltfConverter",
      "version" : "2.0"
   },
   "bufferViews" : [
      {
         "buffer" : 0,
         "byteLength" : 312648,
         "byteOffset" : 0,
         "byteStride" : 0,
         "name" : "buffer-0-bufferview-ushort",
         "target" : 34963
      },
      {
         "buffer" : 0,
         "byteLength" : 1250592,
         "byteOffset" : 312648,
         "byteStride" : 8,
         "name" : "buffer-0-bufferview-vec2",
         "target" : 34962
      },
      {
         "buffer" : 0,
         "byteLength" : 3751776,
         "byteOffset" : 1563240,
         "byteStride" : 12,
         "name" : "buffer-0-bufferview-vec3",
         "target" : 34962
      },
      {
         "buffer" : 0,
         "byteLength" : 1,
         "byteOffset" : 0,
         "name" : "buffer-0-bufferview-vec4"
      }
   ],
   "buffers" : [
      {
         "byteLength" : 5315024,
         "name" : "buffer-0",
         "uri" : "Bottle of pils.bin"
      }
   ],
   "materials" : [
      {
         "alphaMode" : "OPAQUE",
         "doubleSided" : true,
         "name" : "_crayfishdiffuse",
         "pbrMetallicRoughness" : {
            "baseColorFactor" : [ 1, 1, 1, 1 ],
            "metallicFactor" : 0,
            "roughnessFactor" : 0.9124375732201923
         }
      },
      {
         "alphaMode" : "OPAQUE",
         "doubleSided" : true,
         "name" : "03___Default",
         "pbrMetallicRoughness" : {
            "baseColorFactor" : [ 1, 0, 0, 1 ],
            "metallicFactor" : 0,
            "roughnessFactor" : 0.9699476628648295
         }
      },
      {
         "alphaMode" : "OPAQUE",
         "doubleSided" : true,
         "name" : "02___Default",
         "pbrMetallicRoughness" : {
            "baseColorFactor" : [ 0.6706, 0.1176, 0.0745, 1 ],
            "metallicFactor" : 0,
            "roughnessFactor" : 0.9699476628648295
         }
      }
   ],
   "meshes" : [
      {
         "name" : "buffer-0-mesh-0",
         "primitives" : [
            {
               "attributes" : {
                  "NORMAL" : 2,
                  "POSITION" : 1,
                  "TEXCOORD_0" : 3
               },
               "indices" : 0,
               "material" : 0,
               "mode" : 4
            },
            {
               "attributes" : {
                  "NORMAL" : 7,
                  "POSITION" : 6,
                  "TEXCOORD_0" : 8
               },
               "indices" : 5,
               "material" : 0,
               "mode" : 4
            },
            {
               "attributes" : {
                  "NORMAL" : 12,
                  "POSITION" : 11,
                  "TEXCOORD_0" : 13
               },
               "indices" : 10,
               "material" : 0,
               "mode" : 4
            },
            {
               "attributes" : {
                  "NORMAL" : 17,
                  "POSITION" : 16,
                  "TEXCOORD_0" : 18
               },
               "indices" : 15,
               "material" : 1,
               "mode" : 4
            },
            {
               "attributes" : {
                  "NORMAL" : 22,
                  "POSITION" : 21,
                  "TEXCOORD_0" : 23
               },
               "indices" : 20,
               "material" : 2,
               "mode" : 4
            }
         ]
      }
   ],
   "nodes" : [
      {
         "mesh" : 0,
         "name" : "node-0"
      }
   ],
   "scenes" : [
      {
         "name" : "scene-0",
         "nodes" : [ 0 ]
      }
   ]
}
