{
  "accessors": [
    {
      "bufferView": 1,
      "componentType": 5126,
      "count": 410,
      "max": [
        0.24675001204013824,
        0.24674999713897705,
        0.036222077906131744
      ],
      "min": [
        -0.24674998223781586,
        -0.24674999713897705,
        -0.036222077906131744
      ],
      "type": "VEC3"
    },
    {
      "bufferView": 1,
      "byteOffset": 4920,
      "componentType": 5126,
      "count": 410,
      "max": [
        0.98078536987304688,
        0.98078536987304688,
        1
      ],
      "min": [
        -0.98078536987304688,
        -0.98078536987304688,
        -1
      ],
      "type": "VEC3"
    },
    {
      "bufferView": 0,
      "componentType": 5125,
      "count": 576,
      "max": [
        409
      ],
      "min": [
        0
      ],
      "type": "SCALAR"
    }
  ],
  "asset": {
    "extras": {
      "author": "BlobFortress (https://sketchfab.com/asvari)",
      "license": "CC-BY-4.0 (http://creativecommons.org/licenses/by/4.0/)",
      "source": "https://sketchfab.com/models/34794c00e9d140f6b86e930fef18b009",
      "title": "Lowpoly gold coin"
    },
    "generator": "Sketchfab-3.32.3",
    "version": "2.0"
  },
  "bufferViews": [
    {
      "buffer": 0,
      "byteLength": 2304,
      "byteOffset": 0,
      "name": "floatBufferViews",
      "target": 34963
    },
    {
      "buffer": 0,
      "byteLength": 9840,
      "byteOffset": 2304,
      "byteStride": 12,
      "name": "floatBufferViews",
      "target": 34962
    }
  ],
  "buffers": [
    {
      "byteLength": 12144,
      "uri": "scene.bin"
    }
  ],
  "materials": [
    {
      "doubleSided": true,
      "emissiveFactor": [
        0,
        0,
        0
      ],
      "name": "Material",
      "pbrMetallicRoughness": {
        "baseColorFactor": [
          0.80000000000000004,
          0.43735400000000002,
          0.097886899999999999,
          1
        ],
        "metallicFactor": 0,
        "roughnessFactor": 0.82394172570000002
      }
    }
  ],
  "meshes": [
    {
      "name": "bitcoin_Material_0",
      "primitives": [
        {
          "attributes": {
            "NORMAL": 1,
            "POSITION": 0
          },
          "indices": 2,
          "material": 0,
          "mode": 4
        }
      ]
    }
  ],
  "nodes": [
    {
      "children": [
        1
      ],
      "name": "RootNode (gltf orientation matrix)",
      "rotation": [
        -0.70710678118654746,
        -0,
        -0,
        0.70710678118654757
      ]
    },
    {
      "children": [
        2
      ],
      "name": "RootNode (model correction matrix)"
    },
    {
      "children": [
        3
      ],
      "matrix": [
        1,
        0,
        0,
        0,
        0,
        0,
        1,
        0,
        0,
        -1,
        0,
        0,
        0,
        0,
        0,
        1
      ],
      "name": "4761e60571154708a3a5b48b4216d582.fbx"
    },
    {
      "children": [
        4,
        6,
        9
      ],
      "name": "RootNode"
    },
    {
      "children": [
        5
      ],
      "matrix": [
        1,
        0,
        0,
        0,
        0,
        -1.6292067939183141e-07,
        -0.99999999999998679,
        0,
        0,
        0.99999999999998679,
        -1.6292067939183141e-07,
        0,
        0,
        0,
        0,
        1
      ],
      "name": "bitcoin"
    },
    {
      "mesh": 0,
      "name": "bitcoin_Material_0"
    },
    {
      "children": [
        7
      ],
      "matrix": [
        0.89700521599763616,
        0.4411560650526431,
        -0.027621888789549923,
        0,
        0.44146693705164225,
        -0.89100709573054404,
        0.10589286495351101,
        0,
        0.022103979393572993,
        -0.1071805964512746,
        -0.99399376991509936,
        0,
        -4.4313030242919922,
        4.3425164222717285,
        -0.86441117525100708,
        1
      ],
      "name": "Sun"
    },
    {
      "children": [
        8
      ],
      "matrix": [
        1,
        0,
        0,
        0,
        0,
        2.2204460492503131e-16,
        1,
        0,
        0,
        -1,
        2.2204460492503131e-16,
        0,
        0,
        0,
        0,
        1
      ],
      "name": ""
    },
    {
      "name": ""
    },
    {
      "children": [
        10
      ],
      "matrix": [
        0.27407507618126337,
        0.7547671015597045,
        0.59599452599784619,
        0,
        -0.35816347668906523,
        0.65525166919894806,
        -0.66510463385695462,
        0,
        -0.89252550472366676,
        -0.03117486832618388,
        0.44991816033875431,
        0,
        0.207728311419487,
        0.60153806209564209,
        0.46759834885597229,
        1
      ],
      "name": "Camera"
    },
    {
      "name": ""
    }
  ],
  "scene": 0,
  "scenes": [
    {
      "name": "OSG_Scene",
      "nodes": [
        0
      ]
    }
  ]
}

